<svg xmlns="http://www.w3.org/2000/svg" width="20.383" height="23.06" viewBox="0 0 20.383 23.06">
  <g id="Group_68" data-name="Group 68" transform="translate(0 1)">
    <path id="arrow-right-solid" d="M19.957,73.693a1.458,1.458,0,0,0,0-2.061l-7.28-7.28a1.457,1.457,0,0,0-2.061,2.061l4.8,4.8H1.456a1.456,1.456,0,1,0,0,2.912H15.411c3.286-.1,3.982-.1,4.55-.423Z" transform="translate(0 -64.925)" fill="#1ca7df"/>
    <path id="arrow-right-solid-2" data-name="arrow-right-solid" d="M.427,64.353a1.458,1.458,0,0,0,0,2.061l7.28,7.28a1.457,1.457,0,0,0,2.061-2.061l-4.8-4.8h13.96a1.456,1.456,0,0,0,0-2.912H4.972c-3.286.1-3.982.1-4.55.423Z" transform="translate(0 -52.061)" fill="#1ca7df"/>
  </g>
</svg>
