<svg id="Group_1518" data-name="Group 1518" xmlns="http://www.w3.org/2000/svg" xmlns:xlink="http://www.w3.org/1999/xlink" width="20" height="18.157" viewBox="0 0 20 18.157">
  <defs>
    <clipPath id="clip-path">
      <rect id="Rectangle_949" data-name="Rectangle 949" width="20" height="18.157" fill="#fff"/>
    </clipPath>
  </defs>
  <g id="Group_1517" data-name="Group 1517" clip-path="url(#clip-path)">
    <path id="Path_2657" data-name="Path 2657" d="M20,10.422a1.794,1.794,0,0,1-1.543,1.366c-.12.012-.49-.037-.547.039-.032.043-.235.84-.291,1C15.037,20.1,4.713,19.89,2.268,12.443c-.037-.111-.132-.573-.164-.616-.057-.076-.427-.027-.547-.039a1.709,1.709,0,0,1-1.19-2.75,1.957,1.957,0,0,1,1.719-.662A8.233,8.233,0,0,1,5.869,3.142,3.192,3.192,0,0,1,3.371,0H4.523c.082,0,.051.259.062.328A2.036,2.036,0,0,0,5.927,1.914a3.137,3.137,0,0,0,1.153.1,3.392,3.392,0,0,1-.7-1.8c0-.051,0-.213.059-.213H7.587A1.993,1.993,0,0,0,9.25,1.987a7.622,7.622,0,0,0,.815,0A2.251,2.251,0,1,1,7.792,4.655c-.015-.085.014-.4-.069-.4H6.611a3.387,3.387,0,1,0,6.363-1.621l.057-.057a8.19,8.19,0,0,1,4.879,5.777c.057.076.427.027.547.039A1.777,1.777,0,0,1,20,9.758ZM8.29,10.344a2.069,2.069,0,0,0-4.138,0H5.284a.937.937,0,0,1,1.874,0Zm7.573,0a2.069,2.069,0,0,0-4.138,0h1.132a.937.937,0,0,1,1.874,0ZM7.934,13.12c-.084-.049-.838.49-.993.541a3.579,3.579,0,0,0,6.149.02l-.99-.569a2.47,2.47,0,0,1-3.85.454c-.08-.081-.291-.433-.315-.446" transform="translate(0)" fill="#fff"/>
  </g>
</svg>
