<svg id="Group_1520" data-name="Group 1520" xmlns="http://www.w3.org/2000/svg" xmlns:xlink="http://www.w3.org/1999/xlink" width="18.727" height="20.32" viewBox="0 0 18.727 20.32">
  <defs>
    <clipPath id="clip-path">
      <rect id="Rectangle_950" data-name="Rectangle 950" width="18.727" height="20.32" fill="#fff"/>
    </clipPath>
  </defs>
  <g id="Group_1519" data-name="Group 1519" clip-path="url(#clip-path)">
    <path id="Path_2658" data-name="Path 2658" d="M14.152,99.76l1.233,2.421c.063.24.029.5-.242.558L4.53,102.76a.421.421,0,0,1-.369-.162L0,91.3a.4.4,0,0,1,.366-.411c.885.064,1.877-.081,2.749,0,.327.03.341.172.452.434.568,1.351.968,2.828,1.529,4.185.1.232.136.49.452.478L9.561,96c.141.05.182.169.241.291.452.95.685,2.231,1.152,3.145.065.128.113.2.264.223.8.106,1.842-.1,2.661,0a.618.618,0,0,1,.273.1m-7.184-1.7H9.005c.106,0,.281-.444-.219-.489a11.532,11.532,0,0,0-1.72.012c-.26.06-.247.432-.1.478" transform="translate(0 -85.484)" fill="#fff"/>
    <path id="Path_2659" data-name="Path 2659" d="M86.694,302.637v-2.48h8.615a.442.442,0,0,1,.066.066v2.348a.444.444,0,0,1-.066.066Z" transform="translate(-81.564 -282.396)" fill="#fff"/>
    <path id="Path_2660" data-name="Path 2660" d="M188.057,206.589a.726.726,0,0,1,.429.324l3.316,6.65a.854.854,0,0,1-1.561.675c-.485-.737-.851-1.831-1.273-2.617a.935.935,0,0,0-.025-.78,18.269,18.269,0,0,0-1.218-2.414.915.915,0,0,0-.558-.373l-2.67-.01L184,206.589Z" transform="translate(-173.116 -194.364)" fill="#fff"/>
    <path id="Path_2661" data-name="Path 2661" d="M44.107.012A2.177,2.177,0,0,1,46,3.588a1.967,1.967,0,0,1-.632.48c-.067.009-.364-.165-.5-.195a1.616,1.616,0,0,0-.843.047c-.147.05-.315.213-.388.235-.323.1-.968-.586-1.128-.847a2.172,2.172,0,0,1,1.594-3.3" transform="translate(-39.695 0)" fill="#fff"/>
    <path id="Path_2662" data-name="Path 2662" d="M69.937,78.751H68.055c-.611-1.509-1.15-3.054-1.7-4.588a.918.918,0,0,1,1.5-.834,1.12,1.12,0,0,1,.277.431c.615,1.349,1.219,3.2,1.708,4.626a1.206,1.206,0,0,1,.1.365" transform="translate(-62.416 -68.785)" fill="#fff"/>
    <path id="Path_2663" data-name="Path 2663" d="M175.279,177.4a.7.7,0,0,1,.423.555c.06,1.087-1.777.56-2.418.688l-.069-.031-.438-1.213Z" transform="translate(-162.552 -166.9)" fill="#fff"/>
  </g>
</svg>
