<svg xmlns="http://www.w3.org/2000/svg" xmlns:xlink="http://www.w3.org/1999/xlink" width="32" height="32" viewBox="0 0 32 32">
  <defs>
    <clipPath id="clip-path">
      <rect id="Rectangle_882" data-name="Rectangle 882" width="32" height="32" transform="translate(0 0.15)" fill="none"/>
    </clipPath>
    <clipPath id="clip-path-2">
      <rect id="Rectangle_881" data-name="Rectangle 881" width="31.648" height="31.647" fill="none"/>
    </clipPath>
  </defs>
  <g id="Group_1432" data-name="Group 1432" transform="translate(0.125 -0.025)">
    <g id="Group_1431" data-name="Group 1431" transform="translate(-0.125 -0.125)" clip-path="url(#clip-path)">
      <g id="Group_1430" data-name="Group 1430" transform="translate(0.259 0.296)">
        <g id="Group_1429" data-name="Group 1429" clip-path="url(#clip-path-2)">
          <g id="Group_1428" data-name="Group 1428">
            <g id="Group_1427" data-name="Group 1427" clip-path="url(#clip-path-2)">
              <path id="Path_2654" data-name="Path 2654" d="M49.543,9.421a4.716,4.716,0,0,1,2.269-6.434,4.656,4.656,0,0,1,6.1,6.184,4.244,4.244,0,0,0,2.729-.05,13.774,13.774,0,0,1,1.492-.758.554.554,0,0,1,.5.808,6.419,6.419,0,0,1-1.195.74,5.193,5.193,0,0,1-4.049.194c-.146.02-.351.368-.5.5a5.01,5.01,0,0,1-4.235,1.2l-2.233,1.389c-.262.315.213.7.484.825.9.405,1.854-.344,2.66-.681a4.157,4.157,0,0,1,4.208.25c1.16.6,2.68,1.454,3.764,2.167a2.111,2.111,0,0,1,.659.58l3.015-1.413a.53.53,0,0,1,.414.975l-3.068,1.4a1.707,1.707,0,0,1-1.578,1.668,1.655,1.655,0,0,1-.923,1.667c-.136.062-.548.129-.569.149s-.1.6-.184.782a1.649,1.649,0,0,1-1.633.9A1.515,1.515,0,0,1,55.509,23.7c-.155-.054-.5-.274-.615-.256-.031,0-.12.193-.193.258a1.668,1.668,0,0,1-2.636-.383,1.781,1.781,0,0,1-1.768-.092c-.145-.1-.507-.57-.545-.582-.1-.03-.355.1-.5.111a1.718,1.718,0,0,1-1.9-2.048,1.668,1.668,0,0,1-1.5-1.718,7.976,7.976,0,0,1,.225-.78,8.257,8.257,0,0,0-.762-.8c-.839-.573-2.137-.966-3.017-1.541-.437-.509-.025-1.081.618-.866.907.6,2.211.99,3.085,1.6.259.18.386.484.636.675a1.751,1.751,0,0,1,3.342-.152,1.8,1.8,0,0,1,1.777.717,2.959,2.959,0,0,1,.167.425c.033.028.607,0,.759.022a1.517,1.517,0,0,1,1.234,1.17,1.715,1.715,0,0,1,2.124,1.683c.1,0,.071-.116.162-.18.58-.4,1.085.465,1.629.472a.563.563,0,0,0,.512-.814c-.213-.406-1.485-.671-.9-1.353.608-.709,1.582.987,2.318.318a.719.719,0,0,0,.192-.565c-.111-.685-1.146-.554-1.106-1.277a.522.522,0,0,1,.428-.456c.59-.091,1.184.929,1.871.561a.638.638,0,0,0-.022-1.124c-1.419-.691-2.793-1.744-4.2-2.414-2.677-1.27-3.758,1.256-5.955.83-1.178-.229-2.348-1.665-1.289-2.691.417-.4,1.309-.7,1.677-1.07.171-.171-.141-.216-.328-.351-.143-.1-.656-.582-.712-.6-.206-.062-1.083.071-1.427.052a6.126,6.126,0,0,1-2.9-.968.505.505,0,0,1,.406-.847c.239.011,1.106.483,1.483.583a6.8,6.8,0,0,0,.767.169Zm1.584.352c3.2,3.228,8.31-1.431,5.259-4.905-3.215-3.66-8.7,1.442-5.259,4.905m-2.974,7.271a.722.722,0,0,0-.312.249,17.719,17.719,0,0,0-.907,1.589.628.628,0,0,0,1.11.547,12.411,12.411,0,0,0,.924-1.635.621.621,0,0,0-.814-.75m1.309,4.517,1.492-2.6c.168-.7-.606-1.136-1.124-.5s-.9,1.709-1.4,2.408a.642.642,0,0,0,1.03.685m1.35.748c.416.385.82.068,1.069-.3.394-.577.712-1.31,1.085-1.912a.634.634,0,0,0-1.139-.511,20.275,20.275,0,0,0-1.181,2.066.707.707,0,0,0,.166.655m3.96-1.707a.66.66,0,0,0-.909.083,15.381,15.381,0,0,0-.916,1.579.628.628,0,0,0,1.122.559,16.062,16.062,0,0,0,.9-1.6.723.723,0,0,0-.194-.62m1.207.667c.153.3-.516,1.085-.5,1.208.037.221.852.472,1.082.1.342-.558-.373-.666-.493-.931-.061-.133.028-.342-.094-.373" transform="translate(-38.788 -2.59)"/>
              <path id="Path_2655" data-name="Path 2655" d="M7.963,258.446,5.2,254.94a.558.558,0,0,1,.425-.792c1.027-.161,2.242-.154,3.28-.224l4.025,2.711,13.231-4.751a8.044,8.044,0,0,1,6.189.591c1.755,1.06,2.085,3.216.005,4.095l-6.416,1.766c-.161.077-.089.3-.148.476a1.9,1.9,0,0,1-1,1.124c-1.586.283-3.636,1.28-5.183,1.437a1.923,1.923,0,0,1-1.455-.467c-.108-.094-.171-.322-.337-.323a45.472,45.472,0,0,1-10.882,1.8c-1.164-.155-2.893.205-3.987-.017a1.1,1.1,0,0,1-.354-1.946Zm22.68-5.487c-.02-.115-.129-.1-.21-.132a7.2,7.2,0,0,0-3.961.054L5.307,260.5l-2.092.811a16.107,16.107,0,0,0,1.845.066,46.621,46.621,0,0,0,10.077-1.168c.808-.191,1.6-.436,2.408-.638a1.965,1.965,0,0,1,1.387-1.685,41.5,41.5,0,0,1,4.648-1.285,1.915,1.915,0,0,1,1.685.381c.178.146.213.39.466.337,1.9-.613,3.944-.986,5.835-1.6a2.765,2.765,0,0,0,.8-.329c.693-.514.344-1.367-.257-1.794L28.231,254.7a.528.528,0,0,1-.382-.953Zm-18.994,4.055-3.059-2.031c-.539.024-1.116.037-1.662.093-.095.01-.155.007-.214.1L9,258.068c.778-.372,1.809-.544,2.561-.925.066-.033.118.032.088-.129m7.207,2.078a.73.73,0,0,0,.69,1.22c1.445-.535,3.357-.723,4.74-1.318a.721.721,0,0,0-.228-1.414L19.195,258.9a1.161,1.161,0,0,0-.339.192" transform="translate(-2.144 -230.789)"/>
              <path id="Path_2656" data-name="Path 2656" d="M160.448,21.587c.02.021.4.082.56.158.55.265,1.281,1.39.453,1.579-.649.148-.55-.516-1.081-.7-.709-.251-1.892.242-.979.666.639.3,1.333.223,1.947.738a1.27,1.27,0,0,1-.361,2.193c-.136.065-.419.1-.482.143-.161.121-.032.815-.713.715-.546-.08-.348-.658-.416-.74a3.436,3.436,0,0,1-1.056-.536c-.435-.479-.559-1.463.33-1.265.4.089.229.59.854.769.306.088,1.381.11,1.243-.364-.091-.314-1.447-.537-1.8-.7a1.34,1.34,0,0,1-.128-2.5,4.348,4.348,0,0,0,.536-.213c.138-.214-.059-.757.623-.694.5.046.419.693.472.749" transform="translate(-145.002 -19.313)"/>
            </g>
          </g>
        </g>
      </g>
    </g>
  </g>
</svg>
