<svg id="Group_727" data-name="Group 727" xmlns="http://www.w3.org/2000/svg" width="27.48" height="27.48" viewBox="0 0 27.48 27.48">
  <path id="Path_111" data-name="Path 111" d="M13.74,0A13.74,13.74,0,1,1,0,13.74,13.74,13.74,0,0,1,13.74,0Z" transform="translate(0 0)" fill="#00a8ff"/>
  <g id="Group_336" data-name="Group 336" transform="translate(3.275 2.859)">
    <path id="Path_23" data-name="Path 23" d="M0,0H20.93V20.93H0Z" fill="none"/>
    <path id="Path_24" data-name="Path 24" d="M13.1,12.029h2.18l.872-3.488H13.1V6.8c0-.9,0-1.744,1.744-1.744h1.308V2.122A24.564,24.564,0,0,0,13.665,2,3.781,3.781,0,0,0,9.616,6.1V8.541H7v3.488H9.616v7.413H13.1Z" transform="translate(-0.895 -0.256)" fill="#fff"/>
  </g>
</svg>
