<svg id="Group_1318" data-name="Group 1318" xmlns="http://www.w3.org/2000/svg" width="32.258" height="32.208" viewBox="0 0 32.258 32.208">
  <path id="Path_2595" data-name="Path 2595" d="M107.321,29.4c-.091.1-.1.23-.188.348a13.132,13.132,0,0,1-1.2,1.193.666.666,0,0,1-.663.039L98.656,21.9a.486.486,0,0,1,.792-.54l6.2,8.413.567-.564-4.442-14.934-4.444,4.034c-.153.308,1.463,1.506.852,2.044-.723.636-1.218-1.039-1.723-1.285l-8.076,6.991,0,.123,1.342,3.55a.935.935,0,0,1-.2.421,12.715,12.715,0,0,1-1.292,1.291c-.366.283-.519.283-.885,0l-7.025-7.025c-.266-.344-.288-.491-.03-.852a13.442,13.442,0,0,1,1.321-1.325.935.935,0,0,1,.421-.2c1.246.378,2.438.976,3.674,1.34L92.7,15.309c.019-.108-.546-.486-.669-.579-3.7-2.784-7.508-5.419-11.208-8.2a.629.629,0,0,1-.018-.659A15.635,15.635,0,0,1,82.1,4.584c.291-.174.444-.074.742,0,1.45.339,2.913.937,4.364,1.306.16,0,.961-.974,1.235-1.135A1.5,1.5,0,0,1,90.5,6.811c0,.057.465.221.537.217.14-.007,1.058-1.05,1.411-1.229a1.528,1.528,0,0,1,1.957,2.239l3.879,1.13c.178-.01,1.126-1.134,1.35-1.351,1.381-1.338,4.529-4.057,6.57-3.229A1.976,1.976,0,0,1,107.321,5.9V6.906a13.125,13.125,0,0,1-3.684,5.546c-.19.192-1.02.825-1.042,1.04l1.136,3.873a1.528,1.528,0,0,1,2.239,1.957c-.179.353-1.222,1.271-1.229,1.411,0,.072.161.538.217.537a1.5,1.5,0,0,1,2.082,2.021c-.166.309-1.154,1.106-1.155,1.275l1.435,4.771ZM105.337,5.43c-2.249-.029-6.046,4.154-7.562,5.76-2.414,2.556-4.751,5.221-7.057,7.876-2.073,2.387-4.43,4.973-6.329,7.469-.051.067-.2.237-.184.3.123.118.657.743.769.725,3.45-2.859,6.892-5.747,10.251-8.717,1.8-1.591,3.609-3.2,5.355-4.851,1.606-1.517,5.787-5.311,5.76-7.562a.912.912,0,0,0-1-1M97.492,9.994,82.627,5.546c-.135-.012-.492.471-.633.572l11.382,8.339ZM89.217,5.538c-.348.018-.619.43-.859.643a4.782,4.782,0,0,0,.929.336c.588.077.577-1.012-.071-.979M92.2,7.409c.225-.051,1.011.33,1.136.284a.654.654,0,0,0,.185-.942c-.5-.439-1.022.331-1.321.659m12.161,12.16c.328-.3,1.1-.825.659-1.321a.654.654,0,0,0-.942.185c-.047.125.335.911.284,1.136m1.306,2.47c-.741.073-.242.976-.078,1.372.213-.24.625-.511.643-.859a.532.532,0,0,0-.565-.513m-23.5,1.13a4.5,4.5,0,0,0-.8.832l2.1,2.052,1.551-1.791a24.564,24.564,0,0,0-2.853-1.093m5.343,3.583c-.181.255-1.821,1.429-1.791,1.6a28.819,28.819,0,0,0,2.1,2.052c.141-.163.784-.682.793-.843Z" transform="translate(-75.063 -4.436)" fill="#fff"/>
  <path id="Path_2596" data-name="Path 2596" d="M0,59.318V58.94l4.224-4.25c.515-.336,1.1.239.66.723l-4.1,4.094c-.3.255-.595.1-.788-.189" transform="translate(0 -51.43)" fill="#fff"/>
  <path id="Path_2597" data-name="Path 2597" d="M386.758,441.633h-.63c-.13-.174-.253-.344-.162-.57l4.193-4.251c.484-.44,1.059.145.723.66Z" transform="translate(-361.619 -409.425)" fill="#fff"/>
  <path id="Path_2598" data-name="Path 2598" d="M59.031,86.506c.57-.149.822.42.455.9a25.582,25.582,0,0,1-2.46,2.455c-.589.4-1.173-.119-.687-.75A23.089,23.089,0,0,1,58.7,86.743a1.246,1.246,0,0,1,.332-.236" transform="translate(-52.62 -81.313)" fill="#fff"/>
  <path id="Path_2599" data-name="Path 2599" d="M381.164,404.506c.57-.149.822.42.455.9a24.3,24.3,0,0,1-2.461,2.453c-.584.41-1.15-.1-.687-.75a23.808,23.808,0,0,1,2.361-2.365,1.245,1.245,0,0,1,.333-.236" transform="translate(-354.466 -379.278)" fill="#fff"/>
  <path id="Path_2600" data-name="Path 2600" d="M108.553,113.453a.535.535,0,0,1-.019-.644,20.993,20.993,0,0,1,1.826-1.828c.555-.416,1.042.155.723.66a21.561,21.561,0,0,1-1.791,1.8c-.226.168-.533.255-.738.012" transform="translate(-101.604 -104.134)" fill="#fff"/>
  <path id="Path_2601" data-name="Path 2601" d="M368.18,364.6a.483.483,0,0,1,.55.741,26.6,26.6,0,0,1-1.886,1.893.494.494,0,0,1-.691-.69,21.759,21.759,0,0,1,1.791-1.8.594.594,0,0,1,.236-.144" transform="translate(-342.996 -341.889)" fill="#fff"/>
</svg>
