<svg xmlns="http://www.w3.org/2000/svg" width="27.48" height="27.48" viewBox="0 0 27.48 27.48">
  <g id="Group_724" data-name="Group 724" transform="translate(0)">
    <path id="Path_110" data-name="Path 110" d="M13.74,0A13.74,13.74,0,1,1,0,13.74,13.74,13.74,0,0,1,13.74,0Z" transform="translate(0 0)" fill="#00a8ff"/>
    <g id="Group_339" data-name="Group 339" transform="translate(3.371 2.539)">
      <path id="Path_29" data-name="Path 29" d="M0,0H21.569V21.569H0Z" fill="none"/>
      <path id="Path_30" data-name="Path 30" d="M10.987,8.291a2.7,2.7,0,1,0,2.7,2.7A2.7,2.7,0,0,0,10.987,8.291Zm0-1.8a4.494,4.494,0,1,1-4.494,4.494A4.494,4.494,0,0,1,10.987,6.494Zm5.842-.225a1.123,1.123,0,1,1-1.123-1.123A1.123,1.123,0,0,1,16.829,6.269ZM10.987,3.8C8.764,3.8,8.4,3.8,7.366,3.85a4.882,4.882,0,0,0-1.616.3,2.8,2.8,0,0,0-1.6,1.6,4.876,4.876,0,0,0-.3,1.616C3.8,8.358,3.8,8.705,3.8,10.987c0,2.223.006,2.587.052,3.621a4.9,4.9,0,0,0,.3,1.615,2.794,2.794,0,0,0,1.6,1.6,4.893,4.893,0,0,0,1.618.3c.992.047,1.339.052,3.621.052,2.223,0,2.587-.006,3.621-.052a4.912,4.912,0,0,0,1.615-.3,2.625,2.625,0,0,0,.971-.631,2.6,2.6,0,0,0,.633-.971,4.913,4.913,0,0,0,.3-1.618c.047-.992.052-1.339.052-3.621,0-2.223-.006-2.587-.052-3.621a4.892,4.892,0,0,0-.3-1.616,2.616,2.616,0,0,0-.632-.971,2.592,2.592,0,0,0-.971-.633,4.88,4.88,0,0,0-1.616-.3C13.616,3.8,13.269,3.8,10.987,3.8Zm0-1.8c2.442,0,2.747.009,3.7.054a6.621,6.621,0,0,1,2.182.418,4.382,4.382,0,0,1,1.593,1.036A4.411,4.411,0,0,1,19.5,5.1a6.639,6.639,0,0,1,.418,2.182c.042.958.054,1.263.054,3.7s-.009,2.746-.054,3.7a6.644,6.644,0,0,1-.418,2.182A4.589,4.589,0,0,1,16.874,19.5a6.639,6.639,0,0,1-2.182.418c-.958.042-1.263.054-3.7.054s-2.747-.009-3.7-.054A6.644,6.644,0,0,1,5.1,19.5a4.588,4.588,0,0,1-2.629-2.629,6.616,6.616,0,0,1-.418-2.182C2.012,13.734,2,13.429,2,10.987s.009-2.746.054-3.7A6.616,6.616,0,0,1,2.472,5.1,4.386,4.386,0,0,1,3.508,3.508,4.4,4.4,0,0,1,5.1,2.472a6.616,6.616,0,0,1,2.182-.418C8.241,2.012,8.545,2,10.987,2Z" transform="translate(-0.203 -0.203)" fill="#fff"/>
    </g>
  </g>
</svg>
