<svg xmlns="http://www.w3.org/2000/svg" width="18" height="13.339" viewBox="0 0 18 13.339">
  <path id="plane-departure-solid_1_" data-name="plane-departure-solid (1)" d="M10.716,39.91,5.234,37.854A1.8,1.8,0,0,0,3.8,37.93l-1.291.644a.451.451,0,0,0-.042.782L6.6,42.013l-2.77,1.415L2.188,42.7a.9.9,0,0,0-.768.017l-.906.453a.449.449,0,0,0-.141.695l2.056,2.4a.9.9,0,0,0,.683.315H6.986a.9.9,0,0,0,.4-.1l7.675-3.836A5.809,5.809,0,0,0,17.9,39.5a1.087,1.087,0,0,0-1.018-1.468H15.266a3.6,3.6,0,0,0-1.637.394ZM0,50.178a.9.9,0,0,0,.9.9H17.1a.9.9,0,0,0,0-1.8H.9A.9.9,0,0,0,0,50.178Z" transform="translate(0 -37.739)" fill="#fff"/>
</svg>
