<svg id="Group_1426" data-name="Group 1426" xmlns="http://www.w3.org/2000/svg" xmlns:xlink="http://www.w3.org/1999/xlink" width="35.65" height="31.34" viewBox="0 0 35.65 31.34">
  <defs>
    <clipPath id="clip-path">
      <rect id="Rectangle_879" data-name="Rectangle 879" width="35.65" height="31.34" fill="none"/>
    </clipPath>
  </defs>
  <g id="Group_1425" data-name="Group 1425" clip-path="url(#clip-path)">
    <path id="Path_2649" data-name="Path 2649" d="M35.65,3.118V8.977c-.078.052-.315.337-.383.337H29.244V27.059a5.219,5.219,0,0,1-.946,2.25c-1.164,1.544-2.705,1.895-4.586,1.962-6.194.221-12.528-.175-18.737,0A5.075,5.075,0,0,1,0,27.16V23.523c.07-.053.265-.337.313-.337h4.7c.016-.594-.021-1.193,0-1.787.1-3.213.12-6.479.145-9.692.02-2.617-.179-5.508,0-8.083A3.641,3.641,0,0,1,8.258.094c8.079-.117,16.2-.137,24.276.01a3.894,3.894,0,0,1,2.871,2.274ZM29.105,1.232H8.39a6.443,6.443,0,0,0-.963.415C5.971,2.6,6.44,4.681,6.409,6.185c-.067,3.216-.124,6.477-.145,9.692-.016,2.436.018,4.874,0,7.31H20.3c.129,0,.355.43.377.579.262,1.785-.54,3.378.844,4.975a3.71,3.71,0,0,0,6.546-2.15l0-23.236a4,4,0,0,1,1.044-2.122m5.361,6.936V3.421a2.638,2.638,0,0,0-5.222.135V8.169ZM19.427,24.331H1.184v2.593a3.94,3.94,0,0,0,3.168,3.132H21.1c-1.722-1.506-1.752-3.627-1.671-5.724" transform="translate(0 0)"/>
    <path id="Path_2650" data-name="Path 2650" d="M166.246,54.055a.929.929,0,0,1,.481.111c1.437.529,2.941,1.514,4.388,2.086.241.113.28.277.3.515a25.02,25.02,0,0,1-.123,5.006c-.612,2.217-2.941,3.039-4.66,4.314a.58.58,0,0,1-.606,0c-1.836-1.342-4.573-2.372-4.783-4.937a32.291,32.291,0,0,1,0-4.383c.022-.238.062-.4.3-.515Zm0,1.278-3.779,1.806c.01,1.233-.13,2.512-.037,3.741.165,2.182,2.367,2.8,3.867,3.987,1.14-.853,2.946-1.546,3.6-2.832.678-1.333.179-3.269.339-4.731l-.116-.225-3.648-1.729a.361.361,0,0,0-.227-.018" transform="translate(-149.482 -50.251)"/>
    <path id="Path_2651" data-name="Path 2651" d="M132.54,283.879l14.052-.016a.584.584,0,0,1,.24,1.111l-14.169.037a.577.577,0,0,1-.123-1.132" transform="translate(-122.533 -263.911)"/>
    <path id="Path_2652" data-name="Path 2652" d="M147.087,247.564a.612.612,0,0,1-.568.993H132.8a.594.594,0,0,1-.31-1.111l14.172-.04a.649.649,0,0,1,.427.159" transform="translate(-122.598 -230.015)"/>
    <path id="Path_2653" data-name="Path 2653" d="M204.226,116.178a.578.578,0,0,1,.635.886l-2.514,2.417a.72.72,0,0,1-.538.016,18.376,18.376,0,0,1-1.427-1.38.6.6,0,0,1,.866-.77c.177.108.727.79.864.766.467-.29,1.7-1.845,2.114-1.935" transform="translate(-185.793 -107.997)"/>
  </g>
</svg>
