<svg xmlns="http://www.w3.org/2000/svg" xmlns:xlink="http://www.w3.org/1999/xlink" width="40.364" height="31.487" viewBox="0 0 40.364 31.487">
  <defs>
    <clipPath id="clip-path">
      <rect id="Rectangle_876" data-name="Rectangle 876" width="40.364" height="31.487" fill="#fff"/>
    </clipPath>
  </defs>
  <g id="Group_1422" data-name="Group 1422" transform="translate(0 0)">
    <g id="Group_1421" data-name="Group 1421" transform="translate(0 0)" clip-path="url(#clip-path)">
      <path id="Path_2646" data-name="Path 2646" d="M38.18,2.263a1.272,1.272,0,0,0-.487-.21,44.049,44.049,0,0,0-4.815-.473c-2.248-.073-4.916,1.174-7.008,2C20.475,5.708,15.252,8.24,10.04,10.77l-.318-.043C7.748,9.333,5.879,7.764,3.968,6.272c-.476-.192-1.322.417-1.851.417l.048.275,3.621,5.193c.208,1.312-1.194,1.018-.865,2.629.2.988,1.25.533,1.928.393,2.22-.46,4.449-1.223,6.642-1.8.955-.1,1.411,1.067.314,1.523a29.759,29.759,0,0,1-2.947.857,36.048,36.048,0,0,1-4.984,1.231c-2.448.2-3.289-3-1.845-4.643L0,6.434a.833.833,0,0,1,.473-.786A23.855,23.855,0,0,1,3.6,4.6c.584-.111.662,0,1.109.291,1.7,1.127,3.342,2.77,5.029,3.973.1.07.244.22.366.2l10.2-4.83L14.4,2.8a10.425,10.425,0,0,0-2.538.783c.383.447,2.124,1.45,2.223,1.951a.758.758,0,0,1-.871.971c-.638-.085-2.995-2.352-3.678-2.824a.8.8,0,0,1,.351-1.143,35.212,35.212,0,0,1,4.339-1.327l8.607,1.935C26.025,2,29.155.2,32.6,0,34.3.382,36.589.154,38.23.589a2.4,2.4,0,0,1,1.718,1.994c.15,1.256-1.116,2.989-2.066,3.73-.535.419-2.252,1.572-2.739.7-.6-1.076,1.232-1.434,1.905-2,.544-.46,1.835-2.107,1.132-2.751" transform="translate(0 0)" fill="#fff"/>
      <path id="Path_2647" data-name="Path 2647" d="M32.2,21.975a8.354,8.354,0,0,1-10.221-5.413,8.2,8.2,0,1,1,13.409,3.5l5.1,8.98a1.885,1.885,0,0,1-3.222,1.831c-1.748-2.93-3.453-5.893-5.067-8.9m4.243-7.9A6.645,6.645,0,1,0,29.8,20.72a6.646,6.646,0,0,0,6.646-6.645M34.159,21l-.6.345,5.024,8.792.6-.344Z" transform="translate(-0.223 -0.06)" fill="#fff"/>
      <path id="Path_2648" data-name="Path 2648" d="M16.747,18.956c.629-.347,1.912-.439,2.46-.832.6-.432.717-2.211,1.9-1.717.793.332.173,1.3-.074,1.776a3.842,3.842,0,0,1-.878,1.257,34.686,34.686,0,0,1-4.031,1.349c-1.07.171-1.081-.465-1.044-1.321a73.065,73.065,0,0,1,.75-7.414c.159-.989.824-1.323,1.519-.519.043,2.47-.514,4.942-.6,7.421" transform="translate(-0.156 -0.114)" fill="#fff"/>
    </g>
  </g>
</svg>
